P2
#
#
5 7
255
181 63 255 181 255 181 181 255 255 255 63 181 255 255 255 63 181 181 181 181 63 63 63 63 181 63 63 63 63 181 63 63 181 181 181 