P2
#
#
5 7
255
181 255 181 0 0 0 63 255 0 0 63 0 0 0 0 0 0 0 0 0 0 0 0 0 0 0 0 0 0 0 0 0 0 0 0 