P2
#
#
5 7
255
181 181 181 255 255 181 63 63 255 255 181 63 0 255 255 63 63 0 181 181 63 0 0 63 63 63 0 0 63 63 0 0 0 0 0 