P2
#
#
5 7
255
255 181 63 255 255 255 255 255 181 255 255 255 63 0 63 255 255 63 0 0 63 63 0 0 63 0 63 63 0 0 0 0 0 0 0 