P2
#
#
5 7
3
3 3 1 2 3 3 3 1 1 2 3 3 3 0 0 3 3 2 0 0 2 3 2 0 0 0 0 0 0 0 0 0 0 0 0 