P2
#
#
5 7
255
63 63 181 181 255 181 63 255 63 181 63 63 181 63 181 63 63 63 63 63 0 63 181 63 0 63 63 63 63 63 63 63 63 63 63 