P2
#
#
5 7
255
181 181 181 181 255 181 181 63 181 255 181 181 0 63 181 181 63 63 63 63 63 63 0 0 0 0 0 0 0 0 0 0 0 0 0 