P2
#
#
5 7
255
255 181 181 255 255 255 255 181 181 255 255 255 0 63 255 181 181 0 63 63 63 63 63 63 63 63 63 0 0 0 0 0 0 0 0 