P2
#
#
5 7
255
255 255 181 0 0 181 255 255 0 0 63 63 181 63 0 0 0 0 0 0 0 0 0 0 0 0 0 0 0 0 0 0 0 0 0 