P2
#
#
5 7
255
255 255 0 181 255 255 255 255 0 63 255 255 255 0 0 255 255 255 0 0 63 181 181 0 0 0 0 0 0 0 0 0 0 0 0 