P2
#
#
5 7
255
0 255 181 0 0 0 181 63 0 0 0 0 0 0 0 0 0 0 0 0 0 0 0 0 0 0 0 0 0 0 0 0 0 0 0 