P2
#
#
5 7
3
3 3 2 0 0 3 3 3 1 0 1 1 1 1 0 0 0 0 0 0 0 0 0 0 0 0 0 0 0 0 0 0 0 0 0 