P2
#
#
25 14
255
70 98 97 96 96 96 96 96 96 96 95 95 95 95 95 94 94 93 93 93 92 91 90 87 78 71 102 106 106 105 105 105 106 106 106 106 105 105 105 105 104 104 103 103 102 102 101 95 86 78 71 102 111 117 118 118 119 119 118 119 119 118 118 118 118 117 116 115 114 114 112 106 95 86 77 71 103 101 110 134 136 136 136 136 136 135 135 134 135 135 134 133 132 131 129 118 104 93 85 76 72 97 57 21 93 153 157 158 157 157 87 109 55 115 156 155 154 153 150 135 116 103 92 83 76 50 46 46 46 38 19 86 184 186 186 185 185 184 185 186 185 184 180 156 133 114 101 91 82 75 48 46 46 46 46 32 32 97 115 140 194 223 223 227 229 230 219 184 153 131 113 100 90 81 74 63 49 43 41 41 43 44 45 46 48 50 131 194 247 251 255 223 150 149 128 111 98 89 80 73 32 40 40 40 40 41 41 41 43 44 47 50 40 115 249 251 219 170 146 125 109 97 88 79 73 29 40 40 40 40 40 40 40 41 41 44 48 50 43 245 246 213 209 144 123 108 96 87 78 72 19 21 34 40 40 40 40 40 40 40 41 44 46 68 242 241 200 187 140 120 106 95 86 77 71 0 0 26 45 39 39 39 39 39 39 40 41 41 22 188 235 197 161 137 118 104 93 85 76 70 2 53 60 67 44 38 38 38 38 38 38 39 41 36 53 188 186 157 134 116 103 92 83 75 69 22 27 47 70 55 39 37 37 37 37 37 38 39 37 3 0 164 153 131 114 101 91 81 74 69 